<?xml version="1.0" standalone="no"?>
<!DOCTYPE svg PUBLIC "-//W3C//DTD SVG 20010904//EN"
 "http://www.w3.org/TR/2001/REC-SVG-20010904/DTD/svg10.dtd">
<svg version="1.0" xmlns="http://www.w3.org/2000/svg"
 width="350.000000pt" height="144.000000pt" viewBox="0 0 350.000000 144.000000"
 preserveAspectRatio="xMidYMid meet">

<g transform="translate(0.000000,144.000000) scale(0.100000,-0.100000)"
fill="#000000" stroke="none">
<path d="M3298 1193 c6 -2 18 -2 25 0 6 3 1 5 -13 5 -14 0 -19 -2 -12 -5z"/>
<path d="M3259 1173 c-13 -16 -12 -17 4 -4 16 13 21 21 13 21 -2 0 -10 -8 -17
-17z"/>
<path d="M430 1178 c0 -2 -45 -178 -99 -391 -68 -266 -96 -390 -88 -393 7 -2
629 -3 1382 -2 l1370 3 92 365 c51 201 95 377 98 393 l7 27 -1381 0 c-760 0
-1381 -1 -1381 -2z m2262 -115 c41 -37 11 -171 -42 -188 -70 -22 -94 103 -34
175 29 34 49 38 76 13z m189 -90 c24 -64 -46 -158 -113 -151 -47 4 -58 41 -30
99 37 76 122 107 143 52z m-745 -51 c-21 -80 -21 -86 6 -68 25 18 90 21 117 6
32 -17 33 -41 4 -157 l-27 -113 -43 0 c-24 0 -43 2 -43 5 0 3 10 44 21 91 20
78 20 87 6 101 -13 14 -20 14 -46 3 -32 -13 -32 -13 -64 -140 -13 -55 -13 -55
-55 -58 -23 -2 -42 0 -42 5 0 4 19 85 42 180 l42 172 46 20 c24 11 46 18 48
16 2 -1 -4 -30 -12 -63z m-1332 36 c3 -13 10 -86 16 -163 6 -77 13 -155 16
-173 l5 -33 -53 3 -53 3 -3 43 -3 42 -55 0 -54 0 -22 -45 -22 -45 -54 0 c-54
0 -54 0 -40 23 8 12 61 100 117 195 l102 172 49 0 c43 0 50 -3 54 -22z m1719
-9 c22 -31 25 -96 5 -128 -39 -63 -108 -19 -108 70 0 84 59 117 103 58z
m-1127 -16 c-4 -16 -9 -36 -12 -45 -4 -14 1 -18 20 -18 30 0 31 -2 11 -40 -9
-17 -24 -30 -34 -30 -15 0 -22 -14 -35 -67 -39 -156 -32 -143 -80 -143 l-44 0
24 93 c28 111 29 117 7 117 -11 0 11 28 62 80 44 44 81 80 83 80 2 0 1 -12 -2
-27z m553 -64 c34 -12 36 -17 20 -53 -11 -23 -16 -24 -58 -19 -44 5 -49 3 -74
-27 -50 -59 -26 -116 45 -107 36 5 38 4 38 -24 0 -36 -28 -52 -93 -53 -43 -1
-52 3 -79 33 -27 31 -30 39 -26 88 6 65 43 117 108 151 50 25 73 27 119 11z
m-929 -14 c0 -14 3 -14 30 0 56 29 113 18 135 -26 59 -113 -83 -287 -192 -235
l-33 16 -11 -45 c-10 -38 -16 -46 -51 -60 -22 -9 -43 -14 -46 -11 -2 3 12 72
32 153 62 248 51 223 96 223 29 0 40 -4 40 -15z m650 -15 c23 -21 31 -37 28
-55 -3 -22 -17 -32 -95 -68 -51 -23 -91 -46 -90 -52 6 -17 47 -18 71 -2 20 13
25 13 45 -2 21 -16 21 -17 4 -34 -10 -9 -35 -23 -56 -32 -142 -59 -230 89
-123 210 41 46 81 65 137 65 38 0 53 -6 79 -30z m970 -63 c0 -4 4 -6 10 -2 15
9 49 -31 43 -53 -3 -12 1 -22 11 -25 10 -4 13 -13 9 -23 -4 -11 -2 -15 4 -11
13 8 26 -35 17 -57 -3 -9 -1 -16 5 -16 16 0 13 -42 -5 -68 -10 -15 -25 -22
-46 -22 l-31 0 21 23 c12 13 22 29 22 35 0 7 6 12 13 12 8 0 8 3 -2 9 -8 5
-11 16 -8 25 4 9 2 16 -3 16 -6 0 -10 -14 -10 -32 0 -33 -33 -78 -57 -78 -24
0 -83 54 -83 75 0 11 -5 27 -10 35 -6 10 -7 3 -3 -24 l6 -38 -34 7 c-97 20
-122 68 -67 131 51 57 198 118 198 81z m268 -45 c3 -38 -1 -47 -31 -77 -69
-69 -148 -34 -113 49 20 48 62 78 105 74 35 -3 36 -5 39 -46z"/>
<path d="M693 826 c-18 -37 -33 -69 -33 -71 0 -3 18 -5 40 -5 l40 0 -1 43 c-1
23 -4 55 -8 70 -6 27 -8 26 -38 -37z"/>
<path d="M1032 793 c-19 -7 -42 -58 -42 -91 0 -84 93 -52 115 39 10 42 -29 70
-73 52z"/>
<path d="M1517 784 c-28 -27 -37 -60 -14 -51 93 39 117 52 114 61 -2 6 -19 12
-38 14 -27 2 -41 -3 -62 -24z"/>
<path d="M2638 729 c-10 -16 -13 -29 -8 -29 5 0 11 9 15 19 3 11 14 21 23 23
15 3 15 4 2 10 -11 4 -21 -4 -32 -23z"/>
<path d="M2535 689 c-4 -6 -5 -12 -2 -15 2 -3 7 2 10 11 7 17 1 20 -8 4z"/>
<path d="M2655 680 c3 -5 8 -10 11 -10 2 0 4 5 4 10 0 6 -5 10 -11 10 -5 0 -7
-4 -4 -10z"/>
<path d="M2676 647 c3 -10 9 -15 12 -12 3 3 0 11 -7 18 -10 9 -11 8 -5 -6z"/>
<path d="M3282 1135 c0 -22 2 -32 5 -22 6 21 29 22 41 2 6 -11 8 -5 9 20 1 30
-2 35 -20 34 -17 -1 -18 -2 -4 -6 23 -6 22 -23 -2 -23 -11 0 -22 8 -24 18 -3
9 -5 -1 -5 -23z"/>
<path d="M3351 1097 c-13 -21 -12 -21 5 -5 10 10 16 20 13 22 -3 3 -11 -5 -18
-17z"/>
<path d="M3264 1093 c12 -14 29 -22 45 -22 l26 2 -25 4 c-14 3 -34 12 -45 21
-20 17 -20 17 -1 -5z"/>
<path d="M401 304 c-13 -52 -9 -64 23 -64 31 0 51 19 65 59 13 41 14 51 2 51
-5 0 -13 -16 -18 -36 -8 -37 -36 -65 -50 -51 -4 4 -2 25 4 47 8 31 7 40 -2 40
-7 0 -18 -20 -24 -46z"/>
<path d="M615 299 c-9 -28 -14 -53 -11 -56 9 -9 13 -3 29 55 20 67 4 68 -18 1z"/>
<path d="M940 309 c-6 -22 -14 -47 -17 -55 -3 -8 -1 -14 4 -14 5 0 14 14 20
30 16 43 45 41 36 -2 -4 -24 -3 -30 5 -23 7 6 15 26 18 44 7 33 6 34 -20 29
-22 -5 -26 -2 -21 13 4 11 2 19 -4 19 -6 0 -15 -18 -21 -41z"/>
<path d="M2005 340 c-3 -5 -2 -10 4 -10 5 0 13 5 16 10 3 6 2 10 -4 10 -5 0
-13 -4 -16 -10z"/>
<path d="M2138 295 c-19 -67 -1 -71 18 -4 16 52 17 59 6 59 -5 0 -16 -25 -24
-55z"/>
<path d="M1709 324 c-7 -9 -14 -22 -15 -29 -1 -7 -5 -22 -9 -34 -4 -12 -2 -21
4 -21 6 0 14 12 17 28 4 15 14 32 23 39 11 9 12 12 3 13 -7 0 -10 5 -7 10 10
16 -1 12 -16 -6z"/>
<path d="M1958 323 c-19 -22 -34 -83 -20 -83 6 0 13 14 17 30 4 17 10 30 15
30 5 0 8 9 7 20 -2 24 0 24 -19 3z"/>
<path d="M521 305 c-12 -15 -22 -65 -13 -65 4 0 13 14 19 30 6 17 18 30 27 30
19 0 19 -1 6 -34 -5 -14 -6 -26 -1 -26 11 0 33 59 25 71 -7 11 -53 7 -63 -6z"/>
<path d="M666 304 c-36 -35 -8 -78 37 -56 20 11 20 11 -5 6 -37 -8 -36 9 2 23
37 14 41 43 6 43 -14 0 -32 -7 -40 -16z m44 -3 c0 -11 -31 -24 -39 -16 -3 3 1
10 9 15 19 12 30 12 30 1z"/>
<path d="M762 308 c-7 -7 -12 -24 -12 -40 0 -25 3 -27 34 -26 31 1 35 5 44 40
l10 38 -32 0 c-18 0 -37 -5 -44 -12z m48 -24 c0 -19 -28 -30 -41 -17 -7 7 -5
16 6 27 18 18 35 13 35 -10z"/>
<path d="M859 304 c-11 -13 -10 -17 4 -25 24 -14 21 -32 -3 -26 -11 3 -20 1
-20 -4 0 -5 11 -9 25 -9 29 0 53 35 30 44 -22 8 -18 24 8 29 20 4 19 4 -4 6
-15 0 -33 -6 -40 -15z"/>
<path d="M1086 280 c4 -26 2 -45 -6 -55 -7 -8 -8 -15 -2 -15 5 0 28 25 51 55
23 31 36 55 29 55 -8 0 -21 -12 -30 -27 l-16 -28 -7 28 c-11 42 -26 32 -19
-13z"/>
<path d="M1180 300 c-26 -26 -22 -54 8 -58 30 -4 64 26 60 52 -4 29 -42 32
-68 6z m50 -14 c0 -7 -7 -19 -15 -26 -19 -16 -41 1 -32 24 8 20 47 21 47 2z"/>
<path d="M1276 298 c-11 -43 -7 -58 17 -58 31 0 42 10 55 48 9 26 9 33 -1 29
-6 -2 -14 -12 -16 -23 -4 -26 -21 -45 -33 -38 -5 3 -6 19 -3 35 8 34 -10 40
-19 7z"/>
<path d="M1376 301 c-2 -9 -7 -26 -11 -38 -4 -13 -2 -23 4 -23 5 0 13 10 16
23 4 12 16 29 28 38 20 16 20 17 -6 17 -16 0 -28 -7 -31 -17z"/>
<path d="M1478 263 c-14 -49 -7 -76 10 -35 4 10 18 17 32 17 16 0 29 8 36 24
18 34 7 51 -31 49 -31 -1 -33 -4 -47 -55z m66 12 c-8 -20 -34 -27 -40 -10 -9
22 15 48 32 34 7 -6 10 -17 8 -24z"/>
<path d="M1596 301 c-23 -25 -17 -55 12 -59 30 -4 64 26 60 52 -4 29 -49 33
-72 7z m54 -15 c0 -7 -7 -19 -15 -26 -19 -16 -41 1 -32 24 8 20 47 21 47 2z"/>
<path d="M1745 297 c-8 -13 -13 -32 -9 -41 7 -18 49 -22 60 -5 4 8 0 9 -15 4
-34 -10 -24 12 10 24 36 12 34 35 -4 39 -18 2 -30 -4 -42 -21z m55 3 c0 -5 -4
-10 -9 -10 -5 0 -18 -3 -28 -7 -16 -6 -16 -5 -4 10 15 19 41 23 41 7z"/>
<path d="M1839 293 c-15 -39 -5 -66 10 -28 22 53 56 57 41 4 -6 -22 -6 -29 2
-27 14 5 30 57 22 70 -3 4 -19 8 -35 8 -23 0 -32 -6 -40 -27z"/>
<path d="M2002 307 c-15 -18 -26 -67 -14 -67 5 0 14 18 20 40 11 43 10 47 -6
27z"/>
<path d="M2045 304 c-8 -9 -15 -26 -15 -40 0 -21 5 -24 34 -24 27 0 35 5 40
24 3 13 8 31 11 39 8 20 -50 21 -70 1z m45 -13 c0 -21 -23 -45 -33 -34 -12 11
-8 41 6 46 22 9 27 7 27 -12z"/>
</g>
</svg>
