<?xml version="1.0" standalone="no"?>
<!DOCTYPE svg PUBLIC "-//W3C//DTD SVG 20010904//EN"
 "http://www.w3.org/TR/2001/REC-SVG-20010904/DTD/svg10.dtd">
<svg version="1.0" xmlns="http://www.w3.org/2000/svg"
 width="300.000000pt" height="168.000000pt" viewBox="0 0 300.000000 168.000000"
 preserveAspectRatio="xMidYMid meet">

<g transform="translate(0.000000,168.000000) scale(0.100000,-0.100000)"
fill="#000000" stroke="none">
<path d="M1463 1148 c-55 -27 -69 -144 -23 -193 39 -42 140 -46 140 -5 0 15
-6 17 -39 13 -31 -4 -43 -1 -60 16 -26 26 -28 86 -5 120 14 20 23 23 60 18 35
-3 43 -1 47 13 3 12 -2 20 -17 24 -32 9 -78 6 -103 -6z"/>
<path d="M1707 1140 c-50 -40 -58 -131 -16 -184 44 -57 157 -38 185 30 17 41
12 107 -9 135 -33 43 -117 53 -160 19z m121 -53 c9 -18 11 -42 8 -63 -19 -97
-121 -80 -121 21 0 56 18 77 64 73 28 -2 39 -9 49 -31z"/>
<path d="M1990 1045 l0 -115 55 0 c90 0 135 37 135 110 0 76 -50 120 -137 120
l-53 0 0 -115z m120 55 c31 -31 27 -93 -7 -120 -15 -11 -36 -20 -47 -18 -19 3
-21 11 -24 81 l-3 77 31 0 c17 0 39 -9 50 -20z"/>
<path d="M2280 1045 l0 -115 25 0 25 0 0 115 0 115 -25 0 -25 0 0 -115z"/>
<path d="M2440 1045 c0 -108 1 -115 20 -115 18 0 20 7 20 88 l0 87 49 -85 c43
-75 52 -85 80 -88 l31 -3 0 115 c0 111 -1 116 -21 116 -19 0 -20 -5 -17 -85 2
-47 1 -85 -2 -85 -3 0 -27 39 -53 85 -43 76 -51 85 -78 85 l-29 0 0 -115z"/>
<path d="M2793 1141 c-36 -23 -46 -46 -45 -110 2 -82 51 -117 145 -105 l47 6
0 59 0 59 -45 0 c-33 0 -45 -4 -45 -15 0 -8 9 -15 20 -15 16 0 20 -7 20 -30 0
-26 -4 -30 -28 -30 -40 0 -67 33 -67 80 0 57 27 82 85 78 39 -2 45 0 45 17 0
29 -88 33 -132 6z"/>
<path d="M370 851 c0 -205 3 -272 13 -278 6 -4 102 -37 212 -74 l200 -66 5
140 5 141 55 21 c30 12 111 44 179 71 68 26 120 49 115 51 -5 2 -83 -26 -174
-60 -91 -35 -170 -62 -175 -60 -6 2 -9 58 -7 143 3 138 3 139 -20 145 -37 9
-165 41 -276 69 -57 14 -110 26 -118 26 -12 0 -14 -42 -14 -269z"/>
<path d="M1983 836 c-41 -19 -53 -43 -53 -111 0 -49 4 -60 29 -86 34 -33 92
-39 141 -14 56 29 66 143 17 192 -30 30 -90 39 -134 19z m101 -48 c37 -52 9
-138 -44 -138 -16 0 -36 7 -44 16 -22 21 -21 102 1 126 23 25 68 23 87 -4z"/>
<path d="M2310 840 c-38 -15 -60 -60 -60 -120 0 -44 4 -56 29 -81 23 -22 39
-29 69 -29 53 0 72 8 72 30 0 15 -7 17 -43 13 -58 -7 -77 12 -77 76 0 62 23
86 75 77 27 -5 37 -3 41 9 4 9 4 18 1 21 -11 11 -83 13 -107 4z"/>
<path d="M2830 843 c-40 -14 -54 -78 -22 -105 9 -9 32 -23 50 -32 50 -26 40
-51 -21 -50 -43 0 -48 -2 -45 -20 2 -17 11 -22 46 -24 107 -8 134 86 39 134
-17 9 -35 22 -39 28 -13 19 14 37 51 34 26 -2 36 1 39 13 4 24 -56 37 -98 22z"/>
<path d="M1420 725 l0 -115 55 0 c31 0 69 7 85 15 25 13 30 21 30 54 0 27 -5
41 -16 45 -16 6 -16 8 0 24 21 24 20 55 -2 75 -13 12 -37 17 -85 17 l-67 0 0
-115z m114 62 c13 -21 -5 -37 -41 -37 -19 0 -23 5 -23 31 0 27 3 30 26 27 15
-2 32 -11 38 -21z m7 -89 c13 -21 -10 -48 -41 -48 -28 0 -30 3 -30 36 0 36 1
36 32 30 18 -3 35 -12 39 -18z"/>
<path d="M1700 725 l0 -115 70 0 c63 0 70 2 70 20 0 17 -7 20 -45 20 l-45 0 0
95 c0 95 0 95 -25 95 l-25 0 0 -115z"/>
<path d="M2520 725 l0 -115 24 0 c22 0 25 5 28 47 2 25 8 48 13 50 6 1 25 -20
43 -47 25 -39 38 -50 58 -50 l26 0 -23 38 c-12 20 -31 50 -42 65 l-19 28 37
47 c36 46 36 47 14 50 -23 4 -38 -9 -86 -73 l-22 -30 -1 53 c0 49 -2 52 -25
52 l-25 0 0 -115z"/>
<path d="M2348 533 c6 -2 18 -2 25 0 6 3 1 5 -13 5 -14 0 -19 -2 -12 -5z"/>
<path d="M1611 504 c0 -11 3 -14 6 -6 3 7 2 16 -1 19 -3 4 -6 -2 -5 -13z"/>
<path d="M1640 479 c0 -5 5 -7 10 -4 6 3 10 8 10 11 0 2 -4 4 -10 4 -5 0 -10
-5 -10 -11z"/>
<path d="M2760 479 c0 -5 5 -7 10 -4 6 3 10 8 10 11 0 2 -4 4 -10 4 -5 0 -10
-5 -10 -11z"/>
<path d="M2121 464 c0 -11 3 -14 6 -6 3 7 2 16 -1 19 -3 4 -6 -2 -5 -13z"/>
</g>
</svg>
