<?xml version="1.0" standalone="no"?>
<!DOCTYPE svg PUBLIC "-//W3C//DTD SVG 20010904//EN"
 "http://www.w3.org/TR/2001/REC-SVG-20010904/DTD/svg10.dtd">
<svg version="1.0" xmlns="http://www.w3.org/2000/svg"
 width="267.000000pt" height="189.000000pt" viewBox="0 0 267.000000 189.000000"
 preserveAspectRatio="xMidYMid meet">

<g transform="translate(0.000000,189.000000) scale(0.100000,-0.100000)"
fill="#000000" stroke="none">
<path d="M1280 1115 c0 -33 -2 -35 -35 -35 -24 0 -35 -5 -35 -15 0 -10 11 -15
35 -15 l34 0 3 -152 c2 -108 6 -153 15 -155 9 -3 13 33 15 149 l3 153 503 3
c396 2 503 5 499 15 -3 9 -117 13 -505 15 l-502 2 0 35 c0 24 -5 35 -15 35
-10 0 -15 -11 -15 -35z"/>
<path d="M566 1103 c-3 -3 -6 -33 -6 -65 0 -32 -4 -58 -9 -58 -5 0 -22 7 -37
15 -88 45 -194 -21 -194 -122 0 -66 67 -133 133 -133 16 0 45 8 65 17 26 12
37 14 40 5 2 -7 10 -12 18 -12 12 0 14 31 14 174 0 159 -5 198 -24 179z m-43
-143 c81 -64 37 -190 -66 -190 -31 0 -46 7 -73 34 -47 47 -47 95 0 142 41 41
97 47 139 14z"/>
<path d="M710 1065 c0 -13 28 -15 220 -13 136 2 221 7 223 13 1 6 -79 11 -220
13 -195 2 -223 0 -223 -13z"/>
<path d="M723 990 c-87 -53 -82 -189 8 -236 58 -30 168 1 177 50 5 23 -13 20
-44 -9 -40 -37 -105 -35 -145 5 -20 19 -29 38 -27 52 3 22 7 23 121 26 131 3
128 0 91 73 -28 55 -122 75 -181 39z m120 -22 c26 -13 46 -38 47 -55 0 -10
-25 -13 -95 -13 -87 0 -95 2 -95 19 0 47 90 78 143 49z"/>
<path d="M1450 1003 c-28 -10 -70 -56 -81 -90 -19 -59 9 -131 62 -159 36 -18
102 -18 139 1 58 30 83 133 46 190 -34 51 -110 78 -166 58z m101 -43 c53 -29
61 -116 13 -161 -40 -37 -98 -33 -136 10 -26 29 -30 39 -25 75 10 70 85 109
148 76z"/>
<path d="M2178 994 c-44 -23 -58 -62 -58 -159 0 -69 3 -85 15 -85 12 0 15 16
15 84 0 100 4 112 41 131 42 22 67 18 100 -14 28 -28 29 -34 29 -115 0 -70 3
-86 15 -86 20 0 21 146 1 195 -25 58 -99 81 -158 49z"/>
<path d="M980 990 c0 -14 104 -240 110 -240 6 1 111 231 110 243 0 4 -6 7 -12
7 -7 0 -29 -36 -48 -80 -22 -51 -40 -80 -50 -80 -10 0 -29 30 -52 80 -20 44
-41 80 -47 80 -6 0 -11 -5 -11 -10z"/>
<path d="M1682 991 c22 -57 104 -241 108 -241 3 0 20 36 39 80 19 45 40 80 48
80 8 0 30 -36 50 -80 20 -45 39 -77 43 -73 17 19 103 233 97 240 -12 11 -24
-7 -56 -82 -16 -38 -36 -71 -44 -73 -9 -2 -27 26 -52 80 l-37 83 -39 -82 c-21
-46 -43 -83 -49 -83 -6 0 -28 36 -47 80 -21 45 -43 80 -51 80 -7 0 -12 -4 -10
-9z"/>
</g>
</svg>
